<?xml version="1.0" encoding="UTF-8" standalone="no"?>
<svg
   version="1.1"
   id="svg4204"
   viewBox="0 0 99.999997 100"
   height="100"
   width="100"
   sodipodi:docname="icon.svg"
   inkscape:version="1.4.3 (0d15f75042, 2025-12-25)"
   xmlns:inkscape="http://www.inkscape.org/namespaces/inkscape"
   xmlns:sodipodi="http://sodipodi.sourceforge.net/DTD/sodipodi-0.dtd"
   xmlns="http://www.w3.org/2000/svg"
   xmlns:svg="http://www.w3.org/2000/svg"
   xmlns:rdf="http://www.w3.org/1999/02/22-rdf-syntax-ns#"
   xmlns:cc="http://creativecommons.org/ns#"
   xmlns:dc="http://purl.org/dc/elements/1.1/">
  <sodipodi:namedview
     id="namedview1"
     pagecolor="#ffffff"
     bordercolor="#000000"
     borderopacity="0.25"
     inkscape:showpageshadow="2"
     inkscape:pageopacity="0.0"
     inkscape:pagecheckerboard="0"
     inkscape:deskcolor="#d1d1d1"
     inkscape:zoom="6.3875994"
     inkscape:cx="54.793668"
     inkscape:cy="39.842824"
     inkscape:window-width="1920"
     inkscape:window-height="1051"
     inkscape:window-x="0"
     inkscape:window-y="0"
     inkscape:window-maximized="1"
     inkscape:current-layer="layer2" />
  <defs
     id="defs4206">
    <inkscape:path-effect
       effect="fillet_chamfer"
       id="path-effect2"
       is_visible="true"
       lpeversion="1"
       nodesatellites_param="F,0,0,1,0,16,0,1 @ F,0,0,1,0,16,0,1 @ F,0,0,1,0,16,0,1 @ F,0,0,1,0,16,0,1"
       radius="16"
       unit="px"
       method="auto"
       mode="F"
       chamfer_steps="1"
       flexible="false"
       use_knot_distance="true"
       apply_no_radius="true"
       apply_with_radius="true"
       only_selected="false"
       hide_knots="false" />
    <linearGradient
       id="linearGradient4425">
      <stop
         style="stop-color:#00efc4;stop-opacity:1;"
         offset="0"
         id="stop4427" />
      <stop
         style="stop-color:#00efc4;stop-opacity:0;"
         offset="1"
         id="stop4429" />
    </linearGradient>
    <linearGradient
       id="linearGradient4417">
      <stop
         style="stop-color:#00efc4;stop-opacity:1;"
         offset="0"
         id="stop4419" />
      <stop
         style="stop-color:#00efc4;stop-opacity:0;"
         offset="1"
         id="stop4421" />
    </linearGradient>
    <clipPath
       clipPathUnits="userSpaceOnUse"
       id="clipPath4405">
      <path
         id="path4407"
         d="m 243.63459,311.17961 202.45262,-0.0356 20.60205,23.90229 0.52452,103.89139 -22.63342,22.57066 -200.86948,-0.60017 -24.95978,-24.27071 1.23119,-102.34201 z"
         style="color:#000000;display:inline;overflow:visible;visibility:visible;opacity:1;fill:#0f733f;fill-opacity:0;fill-rule:nonzero;stroke:none;stroke-width:1;stroke-linecap:round;stroke-linejoin:round;stroke-miterlimit:4;stroke-dasharray:none;stroke-dashoffset:0;stroke-opacity:1;marker:none;enable-background:accumulate" />
    </clipPath>
    <clipPath
       clipPathUnits="userSpaceOnUse"
       id="clipPath4411">
      <path
         style="color:#000000;display:inline;overflow:visible;visibility:visible;opacity:1;fill:#0f733f;fill-opacity:0;fill-rule:nonzero;stroke:#000000;stroke-width:1;stroke-linecap:round;stroke-linejoin:round;stroke-miterlimit:4;stroke-dasharray:none;stroke-dashoffset:0;stroke-opacity:1;marker:none;enable-background:accumulate"
         d="m 349.34785,325.14657 -202.45262,0.0356 -20.60205,-23.90229 -0.52452,-103.89139 22.63342,-22.57066 200.86948,0.60017 24.95978,24.27071 -1.23119,102.34201 z"
         id="path4413" />
    </clipPath>
    <clipPath
       clipPathUnits="userSpaceOnUse"
       id="clipPath4493">
      <path
         style="color:#000000;display:inline;overflow:visible;visibility:visible;opacity:1;fill:#0f733f;fill-opacity:0;fill-rule:nonzero;stroke:#000000;stroke-width:1;stroke-linecap:round;stroke-linejoin:round;stroke-miterlimit:4;stroke-dasharray:none;stroke-dashoffset:0;stroke-opacity:1;marker:none;enable-background:accumulate"
         d="m 262.49033,526.95792 -0.0356,-202.45262 23.90229,-20.60205 103.89139,-0.52452 22.57066,22.63342 -0.60017,200.86948 -24.27071,24.95978 -102.34201,-1.23119 z"
         id="path4495" />
    </clipPath>
  </defs>
  <metadata
     id="metadata4209">
    <rdf:RDF>
      <cc:Work
         rdf:about="">
        <dc:format>image/svg+xml</dc:format>
        <dc:type
           rdf:resource="http://purl.org/dc/dcmitype/StillImage" />
        <cc:license
           rdf:resource="http://creativecommons.org/licenses/by-sa/4.0/" />
      </cc:Work>
      <cc:License
         rdf:about="http://creativecommons.org/licenses/by-sa/4.0/">
        <cc:permits
           rdf:resource="http://creativecommons.org/ns#Reproduction" />
        <cc:permits
           rdf:resource="http://creativecommons.org/ns#Distribution" />
        <cc:requires
           rdf:resource="http://creativecommons.org/ns#Notice" />
        <cc:requires
           rdf:resource="http://creativecommons.org/ns#Attribution" />
        <cc:permits
           rdf:resource="http://creativecommons.org/ns#DerivativeWorks" />
        <cc:requires
           rdf:resource="http://creativecommons.org/ns#ShareAlike" />
      </cc:License>
    </rdf:RDF>
  </metadata>
  <g
     inkscape:groupmode="layer"
     id="layer2"
     inkscape:label="Layer 2">
    <path
       style="fill:#1a1a1a;stroke-width:11.0359"
       id="rect1"
       width="100"
       height="100"
       x="0"
       y="0"
       inkscape:path-effect="#path-effect2"
       sodipodi:type="rect"
       d="m 16,0 h 68 a 16,16 45 0 1 16,16 V 84 A 16,16 135 0 1 84,100 H 16 A 16,16 45 0 1 0,84 V 16 A 16,16 135 0 1 16,0 Z" />
  </g>
  <g
     inkscape:groupmode="layer"
     id="layer1"
     inkscape:label="Layer 1">
    <g
       id="g2"
       transform="translate(0,6.5752401)">
      <path
         style="color:#000000;fill:#b3b3b3;stroke-width:0.585308;-inkscape-stroke:none"
         d="m 9.7436695,11.651032 -9.16199108,9.451021 0.2495263,43.022248 8.35660878,9.992936 81.0743325,-0.08867 0.06527,-0.06629 9.503641,-9.606807 0.455253,-42.396426 -10.111516,-10.133092 z m 0.6051465,0.444147 79.347223,0.172373 -4.011483,3.700701 -0.02632,-0.02513 -0.116467,0.146439 -42.071455,-0.08743 -29.172931,-0.104898 z m -0.5257665,0.109078 4.0835975,3.932253 -7.8145365,7.8059 -4.909074,-2.788323 -0.155223,0.273362 -0.00124,-0.147469 z m 80.3395725,0.236629 9.491345,9.51177 -5.02642,2.665904 -8.623759,-8.340801 z m -75.425798,3.94523 29.08144,0.06039 41.294132,0.148727 -8.114389,9.950782 -53.493973,0.04871 z m -0.516644,0.07821 8.537186,9.943618 -16.0477945,-2.310616 z m 71.371345,0.272234 8.362802,8.008371 -0.73845,0.07271 -15.153934,1.328459 z m -84.5635749,4.839505 4.9010664,2.7849 0.205137,34.447286 0.01007,2.286354 -4.8720598,2.708061 z m 98.8104469,0.781114 -0.4501,41.779108 -4.99138,-2.791675 7.1e-4,-0.06054 0.14847,-0.1476 -0.14754,-0.01933 0.0764,-11.449034 0.2726,-24.539771 0.37379,-0.03235 -0.15792,-0.153044 z m -93.4016735,2.150796 16.9750335,2.442377 0.0291,31.946169 -0.128041,8.8e-5 -0.159883,0.17735 -16.5630255,1.832741 -0.0095,-1.657605 z m 87.7580535,0.668856 -0.16394,24.600268 -0.12575,11.277587 c -5.427959,-0.691013 -1.53926,-0.167282 -7.98603,-0.97815 l -0.0025,1.66e-4 c -0.09713,-0.01112 -0.01159,-0.0033 -0.105237,-0.01367 l -0.142959,-0.01704 c -4.090232,-0.474285 -4.828468,-0.592338 -4.861419,-0.60832 -0.0096,-0.0043 -0.05924,-0.03538 -0.146396,-0.06506 -0.08716,-0.02967 -0.214768,-0.06303 -0.457378,-0.111608 -0.435816,-0.08726 -1.458318,-0.252095 -3.016158,-0.484239 L 77.15832,26.836213 93.259727,25.258819 Z m -70.339387,1.861142 52.85952,-0.04815 0.02889,31.730118 -40.530223,0.134072 -12.329199,0.01124 z m 7.823876,2.449571 -4.456986,4.068071 0.117278,18.321654 4.065642,4.30266 38.857831,-0.04221 0.06398,-0.05608 4.587281,-4.104769 0.221336,-18.06361 -4.910508,-4.355616 z m 0.171882,0.443399 38.205176,0.06923 4.633633,4.110087 -0.217124,17.666921 -4.379399,3.917097 -38.496578,0.0419 -3.813897,-4.036529 -0.115811,-17.948979 z m 4.509156,29.366504 40.72922,-0.0371 8.240106,10.087924 -9.30664,0.0096 c -20.672961,0.0026 -41.179457,-0.03018 -61.531732,-0.01255 l 5.352681,-5.937985 3.733354,-4.067408 z m -13.655047,0.273092 -3.226228,3.578808 -5.7011,6.212659 -0.0252,-6.5e-5 -4.9849575,-5.77195 -1.930607,-2.264025 z m 55.198476,-0.01368 15.607344,1.948622 c -0.0605,0.05839 -0.14675,0.137459 -0.19645,0.186526 -0.15293,0.150611 -0.23286,0.22855 -0.2901,0.302061 -0.006,0.0083 -0.0152,0.01824 -0.0297,0.04916 l -4.015757,4.023071 -0.815514,0.798699 -2.411153,2.299994 z m -71.5419345,1.925103 1.993522,2.308556 5.0582595,5.926213 -3.9323725,3.954403 -8.0097493,-9.470805 z m 87.8251285,0.253823 4.89875,2.740318 -8.890355,8.988917 -4.077858,-3.903679 2.743431,-2.748406 z m -50.251448,8.100618 41.709009,0.04322 0.07876,-0.07543 0.0067,-1.51e-4 3.949707,3.781476 -79.484058,0.07374 3.951094,-3.789807 z"
         id="path6" />
      <g
         id="g1">
        <path
           id="path7"
           style="-inkscape-font-specification:ubuntu;fill:#ffffff;stroke-width:2.59281"
           d="m 68.440708,31.569251 6.831373,9.809825 2.228312,-2.906615 -4.703908,-6.90321 z m 14.685032,0 -11.57396,15.846852 c -1.327516,1.935963 -2.474645,3.844167 -3.442625,5.724815 h 3.981399 c 0.304222,-0.580787 0.677867,-1.24397 1.120372,-1.990699 0.442507,-0.746728 0.912664,-1.507805 1.410482,-2.28219 0.525475,-0.802041 1.064571,-1.589312 1.617703,-2.363696 0.553131,-0.802042 1.092227,-1.549331 1.617702,-2.240746 0.525475,0.691415 1.065952,1.423535 1.619084,2.19792 0.553131,0.774385 1.092227,1.563037 1.617703,2.365078 0.525475,0.774385 1.009422,1.535462 1.451924,2.28219 0.442502,0.746728 0.816147,1.423698 1.120377,2.032143 h 4.231444 c -0.96798,-1.908304 -2.157864,-3.857873 -3.568338,-5.849147 -1.38284,-2.018931 -2.738156,-3.927137 -4.065672,-5.724815 l 6.969517,-9.997705 z" />
        <path
           id="path8"
           style="-inkscape-font-specification:ubuntu;fill:#ffffff;stroke-width:2.59281"
           d="m 55.912148,31.029096 c -1.465799,0 -2.821122,0.277133 -4.065668,0.830264 -1.244547,0.525475 -2.322737,1.286553 -3.235405,2.28219 -0.88501,0.995638 -1.577151,2.197915 -2.074969,3.608402 -0.49782,1.38283 -0.745995,2.918772 -0.745995,4.605823 0,1.71471 0.248175,3.263058 0.745995,4.645887 0.497818,1.38283 1.189959,2.57132 2.074969,3.566958 0.912668,0.995637 1.990858,1.770502 3.235405,2.323634 1.244546,0.525475 2.599869,0.78882 4.065668,0.78882 1.4658,0 2.821122,-0.263345 4.065669,-0.78882 1.244547,-0.553132 2.30895,-1.327997 3.193961,-2.323634 0.912668,-0.995638 1.618595,-2.184128 2.116413,-3.566958 0.49782,-1.382829 0.745995,-2.931177 0.745995,-4.645887 0,-1.687051 -0.248175,-3.222993 -0.745995,-4.605823 -0.497818,-1.410487 -1.203745,-2.612764 -2.116413,-3.608402 -0.885011,-0.995637 -1.949414,-1.756715 -3.193961,-2.28219 -1.244547,-0.553131 -2.599869,-0.830264 -4.065669,-0.830264 z m 0,3.402563 c 1.880648,-1e-6 3.360059,0.718332 4.438667,2.156476 1.106263,1.410486 1.659146,3.333861 1.659146,5.76764 0,2.433781 -0.552883,4.369561 -1.659146,5.807704 -1.078608,1.410486 -2.558019,2.115032 -4.438667,2.115032 -1.880647,0 -3.373846,-0.704546 -4.480109,-2.115032 -1.078608,-1.438143 -1.619084,-3.373923 -1.619084,-5.807704 0,-2.433779 0.540476,-4.357154 1.619084,-5.76764 1.106263,-1.438144 2.599462,-2.156476 4.480109,-2.156476 z" />
        <path
           id="text1"
           style="-inkscape-font-specification:ubuntu;fill:#ffffff;stroke-width:2.59281"
           d="m 19.819841,31.113366 c -1.908305,0 -3.59591,0.124087 -5.06171,0.372997 -1.438142,0.248909 -2.599058,0.483297 -3.484069,0.70455 v 20.950005 h 3.858448 v -18.21193 c 0.110627,-0.02766 0.331227,-0.06902 0.663106,-0.124332 0.331879,-0.05531 0.691737,-0.09668 1.078929,-0.124333 0.414849,-0.05531 0.843644,-0.09668 1.286149,-0.124332 0.442505,-0.02766 0.857513,-0.04144 1.244706,-0.04144 0.912667,0 1.658576,0.151663 2.239364,0.455885 0.608446,0.276567 1.078602,0.719149 1.410482,1.327593 0.359535,0.608447 0.609092,1.369523 0.747376,2.282191 0.138282,0.912667 0.20722,2.004645 0.20722,3.276848 V 53.140921 H 27.86829 V 41.028185 c 0,-0.940324 -0.05515,-1.839277 -0.165777,-2.696631 C 27.591888,37.4742 27.425055,36.685547 27.203802,35.966475 26.883899,35.022166 26.384679,34.133273 25.668988,33.311289 25.032887,32.592217 24.245615,32.053122 23.305292,31.693586 22.364967,31.306393 21.20267,31.113368 19.819841,31.113368 Z m 12.73578,0 c -0.857355,0 -1.659795,0.09651 -2.406523,0.290109 -0.746728,0.165938 -1.423698,0.372752 -2.032143,0.621662 -0.608445,0.221251 -1.119965,0.457022 -1.534814,0.705931 -0.158854,0.09531 -0.223013,0.143429 -0.349512,0.222417 0.124454,0.150057 0.272489,0.325361 0.379904,0.489041 0.456794,0.664428 0.842089,1.336857 1.065114,2.188249 -0.007,0.0054 -0.03332,0.02464 -0.05526,0.04006 0.31853,-0.194157 0.738773,-0.399673 1.283387,-0.617518 0.857355,-0.359536 1.935545,-0.538774 3.235405,-0.538774 0.940324,0 1.70002,0.151663 2.280808,0.455885 0.608446,0.276567 1.079985,0.719149 1.411863,1.327594 0.359537,0.608446 0.593924,1.369522 0.704551,2.28219 0.138282,0.912667 0.20722,2.004646 0.20722,3.276849 v 11.283854 h 3.858448 V 41.028181 c 0,-1.438143 -0.110299,-2.76589 -0.331553,-3.98278 C 40.07892,35.828511 39.6777,34.777894 39.069255,33.892885 38.488467,33.007873 37.672239,32.329521 36.621289,31.859359 35.570338,31.36154 34.215015,31.113365 32.55562,31.113365 Z" />
      </g>
    </g>
  </g>
</svg>
