<?xml version="1.0" encoding="UTF-8" standalone="no"?>
<svg
   version="1.1"
   id="svg4204"
   viewBox="0 0 108.32932 63.638932"
   height="63.638931"
   width="108.32932"
   xmlns="http://www.w3.org/2000/svg"
   xmlns:svg="http://www.w3.org/2000/svg"
   xmlns:rdf="http://www.w3.org/1999/02/22-rdf-syntax-ns#"
   xmlns:cc="http://creativecommons.org/ns#"
   xmlns:dc="http://purl.org/dc/elements/1.1/">
  <defs
     id="defs4206">
    <linearGradient
       id="linearGradient4425">
      <stop
         style="stop-color:#00efc4;stop-opacity:1;"
         offset="0"
         id="stop4427" />
      <stop
         style="stop-color:#00efc4;stop-opacity:0;"
         offset="1"
         id="stop4429" />
    </linearGradient>
    <linearGradient
       id="linearGradient4417">
      <stop
         style="stop-color:#00efc4;stop-opacity:1;"
         offset="0"
         id="stop4419" />
      <stop
         style="stop-color:#00efc4;stop-opacity:0;"
         offset="1"
         id="stop4421" />
    </linearGradient>
    <clipPath
       clipPathUnits="userSpaceOnUse"
       id="clipPath4405">
      <path
         id="path4407"
         d="m 243.63459,311.17961 202.45262,-0.0356 20.60205,23.90229 0.52452,103.89139 -22.63342,22.57066 -200.86948,-0.60017 -24.95978,-24.27071 1.23119,-102.34201 z"
         style="color:#000000;display:inline;overflow:visible;visibility:visible;opacity:1;fill:#0f733f;fill-opacity:0;fill-rule:nonzero;stroke:none;stroke-width:1;stroke-linecap:round;stroke-linejoin:round;stroke-miterlimit:4;stroke-dasharray:none;stroke-dashoffset:0;stroke-opacity:1;marker:none;enable-background:accumulate" />
    </clipPath>
    <clipPath
       clipPathUnits="userSpaceOnUse"
       id="clipPath4411">
      <path
         style="color:#000000;display:inline;overflow:visible;visibility:visible;opacity:1;fill:#0f733f;fill-opacity:0;fill-rule:nonzero;stroke:#000000;stroke-width:1;stroke-linecap:round;stroke-linejoin:round;stroke-miterlimit:4;stroke-dasharray:none;stroke-dashoffset:0;stroke-opacity:1;marker:none;enable-background:accumulate"
         d="m 349.34785,325.14657 -202.45262,0.0356 -20.60205,-23.90229 -0.52452,-103.89139 22.63342,-22.57066 200.86948,0.60017 24.95978,24.27071 -1.23119,102.34201 z"
         id="path4413" />
    </clipPath>
    <clipPath
       clipPathUnits="userSpaceOnUse"
       id="clipPath4493">
      <path
         style="color:#000000;display:inline;overflow:visible;visibility:visible;opacity:1;fill:#0f733f;fill-opacity:0;fill-rule:nonzero;stroke:#000000;stroke-width:1;stroke-linecap:round;stroke-linejoin:round;stroke-miterlimit:4;stroke-dasharray:none;stroke-dashoffset:0;stroke-opacity:1;marker:none;enable-background:accumulate"
         d="m 262.49033,526.95792 -0.0356,-202.45262 23.90229,-20.60205 103.89139,-0.52452 22.57066,22.63342 -0.60017,200.86948 -24.27071,24.95978 -102.34201,-1.23119 z"
         id="path4495" />
    </clipPath>
  </defs>
  <metadata
     id="metadata4209">
    <rdf:RDF>
      <cc:Work
         rdf:about="">
        <dc:format>image/svg+xml</dc:format>
        <dc:type
           rdf:resource="http://purl.org/dc/dcmitype/StillImage" />
        <cc:license
           rdf:resource="http://creativecommons.org/licenses/by-sa/4.0/" />
      </cc:Work>
      <cc:License
         rdf:about="http://creativecommons.org/licenses/by-sa/4.0/">
        <cc:permits
           rdf:resource="http://creativecommons.org/ns#Reproduction" />
        <cc:permits
           rdf:resource="http://creativecommons.org/ns#Distribution" />
        <cc:requires
           rdf:resource="http://creativecommons.org/ns#Notice" />
        <cc:requires
           rdf:resource="http://creativecommons.org/ns#Attribution" />
        <cc:permits
           rdf:resource="http://creativecommons.org/ns#DerivativeWorks" />
        <cc:requires
           rdf:resource="http://creativecommons.org/ns#ShareAlike" />
      </cc:License>
    </rdf:RDF>
  </metadata>
  <path
     style="color:#000000;fill:#ececec;stroke-width:0.454019;-inkscape-stroke:none"
     d="m 32.369056,0 -8.842694,5.104822 -8.951992,32.149489 4.111846,9.230156 60.503848,17.154465 0.0627,-0.03561 9.13067,-5.148478 9.34486,-31.532898 -5.39131,-9.707472 z m 0.357127,0.459889 59.159901,16.982361 -3.77879,1.908825 -0.0143,-0.02434 -0.118,0.08451 L 56.606426,10.409828 34.864417,4.135087 Z M 32.31077,0.429589 34.522081,4.2306 27.03408,8.394295 23.96395,5.271372 l -0.173867,0.17097 0.03037,-0.110289 z m 59.886584,17.241078 5.06061,9.112209 -4.31618,0.921244 -4.66207,-8.054334 z M 35.088412,4.593151 56.771616,10.815255 87.547264,19.697301 79.379974,25.397483 39.460771,14.071431 Z M 34.68636,4.541761 38.943401,13.77348 27.461828,8.641024 Z m 53.188334,15.362744 4.538,7.750899 -0.56635,-0.102609 -11.58768,-2.227687 z M 23.758618,5.553245 26.823502,8.671914 19.65976,34.414677 19.181653,36.12254 14.971676,37.108021 Z m 73.551016,21.570596 -9.20989,31.073448 -3.13082,-3.142906 0.0137,-0.04493 0.14212,-0.07858 -0.10597,-0.04577 2.48887,-8.525243 5.41575,-18.249845 0.28573,0.05526 -0.0853,-0.147718 z M 27.171048,8.88943 l 12.145347,5.427707 -6.763827,23.839425 -0.09555,-0.02711 -0.156948,0.09835 -12.746028,-2.150767 0.344985,-1.238667 z m 65.329296,19.139264 -5.34753,18.318059 -2.48924,8.386864 c -3.90272,-1.668452 -1.11282,-0.451746 -5.75016,-2.426016 l -0.002,-4.34e-4 c -0.0701,-0.02892 -0.008,-0.0049 -0.0756,-0.03254 l -0.10304,-0.04308 c -2.95071,-1.222614 -3.47639,-1.467491 -3.49758,-1.486414 -0.006,-0.0052 -0.0367,-0.03898 -0.0954,-0.07962 -0.0587,-0.04064 -0.14684,-0.09265 -0.31752,-0.180423 -0.3066,-0.157671 -1.03442,-0.497829 -2.14733,-1.001912 l 6.76301,-23.835137 12.34741,2.243219 z M 39.628754,14.476736 79.074504,25.668456 72.356414,49.346653 42.090609,40.837846 32.8901,38.227437 Z m 5.316654,3.48932 -4.189188,2.088271 -3.804119,13.69367 2.119239,4.073537 28.998617,8.222108 0.05964,-0.02825 4.294187,-2.087976 4.00193,-13.429232 -2.7383,-4.292499 z m 0.03405,0.367303 28.488036,8.166626 2.58389,4.050512 -3.91453,13.134181 -4.099235,1.992121 -28.729039,-8.145621 -1.987955,-3.821519 3.72606,-13.415326 z m -2.873569,22.86647 30.393665,8.623423 4.00475,9.276274 -6.945209,-1.969573 C 54.135611,52.740833 38.843822,48.360707 23.656385,44.050933 l 5.254595,-3.29306 3.649185,-2.241482 z m -10.24527,-2.696673 -3.167064,1.98468 -5.572874,3.423974 -0.01878,-0.0054 -2.493002,-5.364957 -0.959427,-2.099135 z m 41.183395,11.714238 11.22987,4.768839 c -0.0576,0.03069 -0.13868,0.07138 -0.18618,0.09743 -0.14608,0.07988 -0.22227,0.121047 -0.28059,0.16373 -0.006,0.005 -0.0152,0.01038 -0.0326,0.03037 l -3.85045,2.148421 -0.77805,0.422647 -2.28736,1.203754 z m -53.782329,-13.759667 0.996907,2.145718 2.514925,5.495615 -3.773659,2.114904 -3.963977,-8.76695 z m 65.467489,18.843876 3.07262,3.084917 -8.54188,4.817771 -2.2131,-3.778476 2.63049,-1.467712 z m -39.210398,-4.630252 31.107568,8.891459 0.0748,-0.03955 0.005,0.0013 2.14345,3.660086 -59.314262,-16.827818 3.752666,-1.988129 z"
     id="path6" />
  <path
     id="path7"
     style="-inkscape-font-specification:ubuntu;stroke-width:3.66572"
     d="m 80.822266,16.570312 9.658203,13.869141 3.15039,-4.109375 -6.65039,-9.759766 z m 20.761714,0 -16.363277,22.404297 c -1.876844,2.737066 -3.498656,5.434888 -4.867187,8.09375 h 5.628906 c 0.430109,-0.821118 0.95837,-1.758727 1.583984,-2.814453 0.625616,-1.055724 1.290325,-2.131736 1.994141,-3.226562 0.742917,-1.133927 1.505091,-2.246971 2.287109,-3.341797 0.782018,-1.133927 1.544192,-2.190446 2.28711,-3.167969 0.742917,0.977523 1.507044,2.012596 2.289062,3.107422 0.782018,1.094826 1.544192,2.209823 2.28711,3.34375 0.742917,1.094826 1.427122,2.170838 2.052732,3.226562 0.62561,1.055725 1.15387,2.012827 1.58399,2.873047 h 5.98242 c -1.36853,-2.697963 -3.05079,-5.454265 -5.04492,-8.269531 -1.95506,-2.854367 -3.871207,-5.55219 -5.748051,-8.09375 l 9.853511,-14.134766 z" />
  <path
     id="path8"
     style="-inkscape-font-specification:ubuntu;stroke-width:3.66572"
     d="m 63.109375,15.806641 c -2.072349,0 -3.988506,0.39181 -5.748047,1.173828 -1.759541,0.742917 -3.283888,1.81893 -4.574219,3.226562 -1.251228,1.407634 -2.229777,3.107415 -2.933593,5.101563 -0.703818,1.955046 -1.054688,4.126563 -1.054688,6.511718 0,2.424258 0.35087,4.613314 1.054688,6.56836 0.703816,1.955046 1.682365,3.635335 2.933593,5.042969 1.290331,1.407632 2.814678,2.503138 4.574219,3.285156 1.759541,0.742917 3.675698,1.115234 5.748047,1.115234 2.072349,0 3.988505,-0.372317 5.748047,-1.115234 1.759541,-0.782018 3.264395,-1.877524 4.515625,-3.285156 1.290331,-1.407634 2.288371,-3.087923 2.992187,-5.042969 0.703818,-1.955046 1.054688,-4.144102 1.054688,-6.56836 0,-2.385155 -0.35087,-4.556672 -1.054688,-6.511718 -0.703816,-1.994148 -1.701856,-3.693929 -2.992187,-5.101563 -1.25123,-1.407632 -2.756084,-2.483645 -4.515625,-3.226562 -1.759542,-0.782018 -3.675698,-1.173828 -5.748047,-1.173828 z m 0,4.810547 c 2.658862,-10e-7 4.750454,1.015579 6.275391,3.048828 1.564036,1.994146 2.345703,4.713416 2.345703,8.154296 0,3.440882 -0.781667,6.17769 -2.345703,8.210938 -1.524937,1.994147 -3.616529,2.990234 -6.275391,2.990234 -2.658862,0 -4.769948,-0.996087 -6.333984,-2.990234 -1.524937,-2.033248 -2.289063,-4.770056 -2.289063,-8.210938 0,-3.44088 0.764126,-6.16015 2.289063,-8.154296 1.564036,-2.033249 3.675122,-3.048828 6.333984,-3.048828 z" />
  <path
     id="text1"
     style="-inkscape-font-specification:ubuntu;stroke-width:3.66572"
     d="m 12.082031,15.925781 c -2.6979631,0 -5.0839008,0.175435 -7.1562498,0.527344 C 2.8925334,16.805033 1.2512295,17.136411 0,17.449219 v 29.61914 H 5.4550781 V 21.320312 c 0.1564038,-0.0391 0.4682889,-0.09758 0.9375,-0.175781 0.4692112,-0.0782 0.9779777,-0.136681 1.5253907,-0.175781 0.5865138,-0.0782 1.1927447,-0.136681 1.8183593,-0.175781 0.6256139,-0.0391 1.2123519,-0.05859 1.7597659,-0.05859 1.29033,0 2.344897,0.214421 3.166015,0.644531 0.860222,0.39101 1.524929,1.016733 1.994141,1.876953 0.508312,0.860222 0.861136,1.936232 1.056641,3.226563 0.195504,1.29033 0.292968,2.83417 0.292968,4.632812 v 15.953125 h 5.455079 v -17.125 c 0,-1.32943 -0.07797,-2.600371 -0.234376,-3.8125 -0.156402,-1.212128 -0.39227,-2.327126 -0.705078,-3.34375 -0.45228,-1.335066 -1.158077,-2.591783 -2.169922,-3.753906 -0.899321,-1.016624 -2.012366,-1.778797 -3.341796,-2.287109 -1.329432,-0.547414 -2.972689,-0.820313 -4.927735,-0.820313 z m 18.00586,0 c -1.212129,0 -2.34662,0.136449 -3.402344,0.410157 -1.055725,0.234604 -2.012827,0.526997 -2.873047,0.878906 -0.86022,0.312806 -1.583408,0.646138 -2.169922,0.998047 -0.224588,0.134752 -0.315295,0.202779 -0.49414,0.314453 0.175953,0.21215 0.385246,0.459996 0.537109,0.691406 0.645816,0.939369 1.190546,1.890051 1.505859,3.09375 -0.0099,0.0076 -0.0471,0.03484 -0.07813,0.05664 0.450338,-0.274499 1.044477,-0.565057 1.814453,-0.873047 1.212129,-0.508313 2.736476,-0.761719 4.574219,-0.761719 1.329432,0 2.403491,0.214421 3.224609,0.644531 0.860222,0.39101 1.526884,1.016733 1.996094,1.876953 0.508313,0.860222 0.83969,1.936232 0.996094,3.226563 0.195504,1.29033 0.292969,2.83417 0.292969,4.632812 v 15.953125 h 5.455078 v -17.125 c 0,-2.033248 -0.155942,-3.910419 -0.46875,-5.630859 -0.273707,-1.72044 -0.840952,-3.205803 -1.701172,-4.457031 -0.821119,-1.25123 -1.975103,-2.210285 -3.460937,-2.875 C 34.350097,16.27665 32.43394,15.92578 30.087886,15.92578 Z" />
</svg>

